<?xml version="1.0" standalone="no"?>
<!DOCTYPE svg PUBLIC "-//W3C//DTD SVG 20010904//EN"
 "http://www.w3.org/TR/2001/REC-SVG-20010904/DTD/svg10.dtd">
<svg version="1.0" xmlns="http://www.w3.org/2000/svg"
 width="436.000000pt" height="490.000000pt" viewBox="0 0 436.000000 490.000000"
 preserveAspectRatio="xMidYMid meet">
<metadata>
Created by potrace 1.16, written by Peter Selinger 2001-2019
</metadata>
<g transform="translate(0.000000,490.000000) scale(0.100000,-0.100000)"
fill="#000000" stroke="none">
<path d="M1310 4307 c-62 -41 -75 -77 -74 -202 4 -275 132 -624 353 -960 47
-71 87 -132 88 -135 2 -3 -32 -42 -76 -87 -134 -140 -176 -254 -164 -442 6
-86 5 -90 -23 -132 -30 -46 -44 -73 -64 -126 -9 -23 -19 -33 -34 -34 -21 0
-21 -1 2 -11 19 -10 21 -16 16 -47 -3 -20 -12 -41 -19 -47 -11 -8 -10 -12 5
-22 10 -6 21 -29 25 -51 5 -30 22 -56 66 -104 32 -36 59 -68 59 -72 0 -3 -9
-25 -19 -49 -58 -126 -111 -317 -111 -398 0 -24 -3 -67 -7 -96 -5 -47 -9 -54
-37 -66 -112 -47 -171 -260 -115 -413 25 -66 48 -103 97 -155 l35 -37 -26 -40
c-73 -109 -1 -151 257 -151 143 0 200 11 226 42 15 19 21 20 50 10 18 -7 84
-17 147 -23 122 -12 304 0 371 24 31 11 36 10 51 -10 27 -32 83 -43 228 -43
150 0 228 13 261 43 29 27 28 50 -4 104 -28 49 -31 40 29 107 107 122 126 301
48 454 -20 40 -77 92 -99 92 -21 0 -32 38 -32 107 0 114 -42 294 -97 413 -19
41 -35 78 -36 81 -1 4 25 35 58 70 50 53 63 74 70 114 8 42 14 51 34 53 l24 4
-24 12 c-19 9 -24 19 -24 51 0 33 4 40 25 46 l25 7 -26 1 c-22 1 -30 10 -46
49 -11 26 -34 69 -52 96 -31 50 -31 51 -31 183 0 110 -4 142 -21 190 -29 79
-97 178 -163 242 -31 28 -56 54 -56 57 0 3 31 52 70 109 145 216 257 443 310
630 63 218 81 417 46 497 -16 37 -53 72 -87 83 -50 16 -177 -59 -281 -167
-104 -108 -251 -339 -293 -463 -41 -119 -67 -312 -64 -470 l3 -110 -107 -3
-107 -3 6 89 c8 104 -10 291 -38 412 -51 218 -268 538 -445 658 -55 37 -111
62 -138 62 -7 0 -27 -10 -45 -23z m145 -128 c104 -72 183 -157 285 -310 134
-198 180 -368 180 -660 l0 -154 160 0 160 0 0 165 c0 180 15 289 58 426 35
112 169 312 292 435 87 87 172 149 206 149 19 0 44 -65 44 -115 0 -43 -23
-198 -39 -270 -37 -156 -101 -327 -186 -495 -63 -125 -151 -279 -171 -300 -23
-24 -17 5 15 74 61 127 128 323 170 494 5 20 14 56 20 78 13 49 15 112 3 98
-5 -5 -20 -45 -34 -89 -33 -101 -94 -254 -148 -370 -23 -49 -47 -101 -54 -115
-9 -21 -11 -12 -14 63 -3 90 -15 114 -25 50 -4 -21 -16 -76 -27 -123 -12 -47
-24 -105 -27 -130 l-5 -45 53 -24 c72 -32 213 -174 256 -256 43 -84 54 -142
51 -275 -3 -104 -1 -118 18 -145 36 -50 64 -105 64 -124 0 -14 -11 -20 -52
-27 l-53 -8 60 -6 60 -5 3 -37 3 -38 -48 -1 -48 -1 35 -10 c19 -6 40 -12 47
-14 9 -2 10 -11 2 -33 -10 -29 -13 -30 -57 -25 -35 4 -43 3 -32 -5 8 -6 25
-11 38 -11 44 0 24 -35 -60 -102 -76 -62 -221 -120 -364 -147 -78 -14 -350
-14 -428 0 -164 31 -317 97 -398 173 -53 49 -62 76 -24 76 14 0 28 5 32 12 5
8 -4 9 -33 5 -38 -6 -41 -5 -53 23 -7 17 -11 32 -9 34 2 1 24 8 49 13 l45 11
-47 1 -48 1 0 40 0 39 63 3 62 3 -52 9 c-67 11 -68 25 -11 120 l43 70 -3 120
c-2 101 1 132 19 185 44 135 185 292 307 340 35 15 41 39 23 97 -5 16 -19 74
-31 129 -31 139 -34 142 -40 40 l-5 -90 -44 90 c-24 50 -52 113 -63 140 -11
28 -25 64 -33 80 -19 43 -71 183 -86 230 -8 22 -19 48 -25 59 -19 29 -7 -48
32 -199 49 -194 94 -324 155 -454 36 -76 43 -110 19 -85 -31 31 -172 294 -243
454 -106 238 -174 586 -134 683 9 21 23 37 32 37 9 0 50 -23 90 -51z m138
-2403 c72 -32 160 -61 237 -77 88 -19 414 -19 495 0 95 21 186 51 238 77 27
13 54 24 60 24 13 0 58 -92 90 -180 25 -73 34 -195 17 -257 -21 -77 -55 -143
-110 -218 -63 -86 -69 -94 -100 -172 -25 -60 -71 -123 -90 -123 -13 0 -13 16
0 41 18 33 -5 21 -39 -21 -41 -52 -71 -54 -71 -5 0 40 -9 44 -28 15 -16 -25
-32 -17 -32 16 0 13 -4 24 -10 24 -5 0 -10 -5 -10 -11 0 -5 -4 -7 -10 -4 -16
10 -11 88 10 153 25 75 65 144 130 225 27 33 47 63 44 66 -9 9 -105 -94 -149
-160 -54 -82 -76 -145 -82 -234 -6 -81 -7 -78 98 -158 22 -17 48 -27 69 -27
35 0 35 6 11 -85 -6 -22 -8 -60 -5 -85 5 -41 4 -47 -18 -57 -47 -23 -85 -32
-173 -43 -74 -10 -108 -9 -191 3 -56 9 -117 22 -137 30 l-35 15 -5 84 c-2 46
-8 95 -12 111 -7 26 -6 27 26 27 25 0 47 11 79 38 94 78 93 77 87 145 -6 79
-37 166 -84 237 -43 65 -139 167 -148 158 -4 -4 5 -19 19 -35 38 -41 110 -151
134 -203 39 -89 55 -191 32 -205 -5 -3 -10 -1 -10 4 0 6 -4 11 -10 11 -5 0
-10 -10 -10 -23 0 -35 -11 -40 -37 -15 l-23 21 0 -36 c0 -51 -28 -49 -74 5
-35 43 -57 48 -36 8 15 -29 6 -36 -22 -18 -23 15 -45 54 -84 147 -10 25 -40
74 -66 109 -68 92 -84 120 -113 196 -29 76 -33 175 -11 266 15 64 85 220 98
220 5 0 33 -11 61 -24z m-193 -479 c0 -27 44 -104 102 -181 33 -44 77 -116 98
-161 21 -45 58 -105 84 -133 25 -29 53 -66 61 -83 17 -33 33 -169 20 -169 -4
0 -23 18 -42 40 -75 88 -223 125 -316 80 l-42 -21 -47 51 c-74 78 -93 127 -93
235 0 79 4 97 28 148 29 58 64 87 107 87 18 0 20 6 20 60 0 33 4 60 10 60 6 0
10 -6 10 -13z m1380 -47 c0 -58 1 -60 26 -60 17 0 40 -13 64 -37 61 -62 87
-188 58 -287 -15 -52 -71 -139 -110 -170 -30 -23 -30 -23 -69 -5 -90 44 -238
5 -312 -81 -19 -22 -38 -40 -42 -40 -4 0 -5 33 -2 74 6 80 16 102 83 178 37
43 77 111 102 178 6 14 39 64 74 111 59 79 108 164 108 189 0 5 5 10 10 10 6
0 10 -27 10 -60z m-1226 -592 c80 -23 166 -98 166 -146 0 -14 -9 -21 -31 -26
-50 -10 -134 -7 -146 5 -8 8 -17 8 -31 0 -31 -16 -42 -13 -42 10 0 20 -1 21
-25 5 -35 -23 -58 -21 -50 4 8 25 -5 25 -38 0 -21 -17 -26 -18 -37 -5 -6 8 -9
22 -6 32 10 30 78 95 121 114 47 22 64 23 119 7z m1162 -4 c45 -18 99 -67 121
-108 13 -24 13 -30 1 -43 -12 -12 -18 -11 -40 7 -34 26 -38 25 -38 -5 0 -30
-4 -31 -38 -4 l-26 20 -8 -20 c-8 -24 -12 -25 -39 -10 -15 7 -24 7 -35 -2 -15
-12 -150 -9 -172 5 -28 17 43 114 103 140 17 7 41 18 55 24 36 15 72 14 116
-4z"/>
<path d="M1703 2758 c-21 -10 -32 -38 -15 -38 15 0 62 37 55 43 -8 9 -13 8
-40 -5z"/>
<path d="M2415 2760 c-7 -11 54 -45 63 -35 7 7 -34 45 -49 45 -4 0 -10 -4 -14
-10z"/>
<path d="M1633 2570 c-29 -12 -59 -58 -46 -71 6 -6 14 -5 23 6 24 29 30 15 27
-71 -2 -85 -2 -86 31 -115 48 -43 94 -40 139 8 33 34 35 40 31 88 -10 124
-105 195 -205 155z m105 -82 c-3 -25 -33 -34 -57 -19 -21 13 4 41 36 41 20 0
24 -4 21 -22z"/>
<path d="M2401 2562 c-45 -22 -80 -90 -81 -154 0 -39 6 -54 31 -83 26 -29 38
-35 71 -35 31 0 46 7 70 30 29 30 30 32 27 115 -4 87 4 103 31 70 22 -27 34 0
14 30 -31 47 -101 59 -163 27z m77 -64 c15 -15 -2 -38 -28 -38 -22 0 -44 25
-35 40 8 14 48 13 63 -2z"/>
<path d="M1973 2203 c-33 -12 -3 -64 57 -99 27 -16 30 -23 30 -66 0 -44 -3
-50 -32 -68 -42 -26 -98 -26 -131 0 -36 28 -61 25 -39 -5 21 -31 73 -55 116
-55 25 0 46 -4 46 -9 0 -18 58 -30 90 -20 17 6 30 15 30 20 0 5 21 9 48 9 38
0 55 6 85 31 20 17 37 35 37 40 0 15 -23 10 -50 -11 -32 -25 -86 -25 -127 0
-30 18 -33 24 -33 70 0 41 4 51 23 61 32 16 77 61 77 75 0 23 -30 31 -77 23
-25 -5 -55 -7 -67 -5 -58 12 -72 14 -83 9z m125 -270 c-2 -10 -10 -18 -18 -18
-8 0 -16 8 -18 18 -2 12 3 17 18 17 15 0 20 -5 18 -17z"/>
<path d="M1528 2013 c7 -3 16 -2 19 1 4 3 -2 6 -13 5 -11 0 -14 -3 -6 -6z"/>
<path d="M1180 2060 c-18 -12 39 -12 85 0 26 7 24 8 -20 9 -27 0 -57 -4 -65
-9z"/>
<path d="M2895 2060 c11 -5 38 -9 60 -9 31 0 36 2 20 9 -11 5 -38 9 -60 9 -31
0 -36 -2 -20 -9z"/>
<path d="M1295 1960 c-3 -5 -15 -10 -26 -10 -10 0 -19 -5 -19 -11 0 -7 7 -8
18 -4 9 4 27 10 40 12 29 7 39 23 13 23 -11 0 -23 -4 -26 -10z"/>
<path d="M2820 1960 c0 -5 10 -10 23 -10 13 0 28 -5 34 -11 6 -6 19 -9 29 -6
18 4 18 4 -1 11 -11 4 -28 12 -37 17 -23 12 -48 12 -48 -1z"/>
</g>
</svg>
